<svg width="40" height="40" viewBox="0 0 40 40" fill="none" xmlns="http://www.w3.org/2000/svg">
<circle cx="20" cy="20" r="20" fill="url(#paint0_radial)"/>
<path d="M18.758 10H20.388V17.35L15.558 13.07V17H13.928V9.65L18.758 13.93V10ZM21.2433 14.7C21.2433 14.2133 21.3566 13.79 21.5833 13.43C21.8166 13.07 22.13 12.79 22.5233 12.59C22.9233 12.39 23.3733 12.29 23.8733 12.29C24.38 12.29 24.83 12.39 25.2233 12.59C25.6166 12.79 25.9266 13.07 26.1533 13.43C26.3866 13.79 26.5033 14.2133 26.5033 14.7C26.5033 15.18 26.3866 15.6 26.1533 15.96C25.9266 16.32 25.6166 16.6 25.2233 16.8C24.83 17 24.38 17.1 23.8733 17.1C23.3733 17.1 22.9233 17 22.5233 16.8C22.13 16.6 21.8166 16.32 21.5833 15.96C21.3566 15.6 21.2433 15.18 21.2433 14.7ZM22.8033 14.7C22.8033 15.0533 22.9066 15.3333 23.1133 15.54C23.3266 15.7467 23.58 15.85 23.8733 15.85C24.1666 15.85 24.4166 15.7467 24.6233 15.54C24.8366 15.3333 24.9433 15.0533 24.9433 14.7C24.9433 14.3467 24.8366 14.0667 24.6233 13.86C24.4166 13.6467 24.1666 13.54 23.8733 13.54C23.58 13.54 23.3266 13.6467 23.1133 13.86C22.9066 14.0667 22.8033 14.3467 22.8033 14.7ZM6.81248 20H8.53248V27H6.81248V20ZM16.6912 24.04V27H15.1712V24.2C15.1712 23.9267 15.1245 23.72 15.0312 23.58C14.9445 23.4333 14.7978 23.36 14.5912 23.36C14.3912 23.36 14.2278 23.43 14.1012 23.57C13.9745 23.71 13.9112 23.92 13.9112 24.2V27H12.3912V24.2C12.3912 23.9267 12.3445 23.72 12.2512 23.58C12.1645 23.4333 12.0178 23.36 11.8112 23.36C11.6112 23.36 11.4478 23.43 11.3212 23.57C11.1945 23.71 11.1312 23.92 11.1312 24.2V27H9.67116V22.4H11.1312V23.08C11.2645 22.8267 11.4412 22.6333 11.6612 22.5C11.8812 22.36 12.1478 22.29 12.4612 22.29C12.8212 22.29 13.1078 22.3533 13.3212 22.48C13.5412 22.6067 13.6945 22.7967 13.7812 23.05C13.9478 22.81 14.1545 22.6233 14.4012 22.49C14.6478 22.3567 14.9278 22.29 15.2412 22.29C15.7745 22.29 16.1478 22.4433 16.3612 22.75C16.5812 23.0567 16.6912 23.4867 16.6912 24.04ZM18.1798 23.81L17.6698 22.8C17.9365 22.6733 18.2498 22.5533 18.6098 22.44C18.9765 22.3267 19.3765 22.27 19.8098 22.27C20.2165 22.27 20.5798 22.33 20.8998 22.45C21.2198 22.5633 21.4732 22.73 21.6598 22.95C21.8465 23.17 21.9398 23.44 21.9398 23.76V27H20.4898V26.37C20.3498 26.61 20.1398 26.7933 19.8598 26.92C19.5865 27.04 19.2898 27.1 18.9698 27.1C18.6765 27.1 18.4032 27.0467 18.1498 26.94C17.9032 26.8267 17.7032 26.66 17.5498 26.44C17.4032 26.22 17.3298 25.9533 17.3298 25.64C17.3298 25.2 17.4832 24.8533 17.7898 24.6C18.1032 24.34 18.5498 24.21 19.1298 24.21C19.4098 24.21 19.6665 24.24 19.8998 24.3C20.1332 24.3533 20.3298 24.42 20.4898 24.5V24.1C20.4898 23.6467 20.1998 23.42 19.6198 23.42C19.4198 23.42 19.2198 23.4433 19.0198 23.49C18.8198 23.5367 18.6432 23.5933 18.4898 23.66C18.3432 23.72 18.2398 23.77 18.1798 23.81ZM18.8598 25.56C18.8598 25.74 18.9198 25.88 19.0398 25.98C19.1665 26.0733 19.3232 26.12 19.5098 26.12C19.7565 26.12 19.9765 26.0467 20.1698 25.9C20.3632 25.7467 20.4698 25.52 20.4898 25.22C20.2165 25.1 19.9198 25.04 19.5998 25.04C19.3332 25.04 19.1432 25.0867 19.0298 25.18C18.9165 25.2667 18.8598 25.3933 18.8598 25.56ZM22.706 27.33H24.176C24.2027 27.6167 24.3094 27.83 24.496 27.97C24.6827 28.11 24.9227 28.18 25.216 28.18C25.536 28.18 25.806 28.0733 26.026 27.86C26.2527 27.6467 26.366 27.3267 26.366 26.9V26.18C25.9994 26.7133 25.4727 26.98 24.786 26.98C24.4127 26.98 24.0594 26.8933 23.726 26.72C23.3927 26.5467 23.1227 26.2867 22.916 25.94C22.7094 25.5867 22.606 25.1533 22.606 24.64C22.606 24.12 22.7094 23.6867 22.916 23.34C23.1227 22.9933 23.3927 22.7333 23.726 22.56C24.0594 22.3867 24.4127 22.3 24.786 22.3C25.4727 22.3 25.9994 22.5667 26.366 23.1V22.4H27.816V26.9C27.816 27.4933 27.7027 27.9733 27.476 28.34C27.2494 28.7067 26.9427 28.9733 26.556 29.14C26.176 29.3067 25.7527 29.39 25.286 29.39C24.7127 29.39 24.2427 29.3033 23.876 29.13C23.5094 28.9567 23.2327 28.7133 23.046 28.4C22.8594 28.0933 22.746 27.7367 22.706 27.33ZM24.196 24.64C24.196 25 24.3027 25.2767 24.516 25.47C24.736 25.6633 24.996 25.76 25.296 25.76C25.4694 25.76 25.636 25.72 25.796 25.64C25.9627 25.5533 26.0994 25.4267 26.206 25.26C26.3127 25.0933 26.366 24.8867 26.366 24.64C26.366 24.3867 26.3127 24.18 26.206 24.02C26.0994 23.8533 25.9627 23.73 25.796 23.65C25.636 23.5633 25.4694 23.52 25.296 23.52C24.996 23.52 24.736 23.6167 24.516 23.81C24.3027 24.0033 24.196 24.28 24.196 24.64ZM31.1351 27.1C30.5951 27.1 30.1284 27.0033 29.7351 26.81C29.3484 26.61 29.0484 26.33 28.8351 25.97C28.6218 25.61 28.5151 25.1867 28.5151 24.7C28.5151 23.9533 28.7451 23.3667 29.2051 22.94C29.6651 22.5133 30.2984 22.3 31.1051 22.3C31.8984 22.3 32.5084 22.5033 32.9351 22.91C33.3684 23.3167 33.5851 23.89 33.5851 24.63C33.5851 24.7033 33.5851 24.7733 33.5851 24.84C33.5851 24.9067 33.5818 24.9667 33.5751 25.02H30.0651C30.1051 25.3333 30.2151 25.5767 30.3951 25.75C30.5751 25.9233 30.8118 26.01 31.1051 26.01C31.6384 26.01 32.0184 25.81 32.2451 25.41L33.6051 25.74C33.1184 26.6467 32.2951 27.1 31.1351 27.1ZM31.0751 23.31C30.5284 23.31 30.1984 23.6 30.0851 24.18H31.9651C31.9384 23.9133 31.8451 23.7033 31.6851 23.55C31.5318 23.39 31.3284 23.31 31.0751 23.31Z" fill="white"/>
<defs>
<radialGradient id="paint0_radial" cx="0" cy="0" r="1" gradientUnits="userSpaceOnUse" gradientTransform="translate(41.56 -4.15462) rotate(129.411) scale(66.7263)">
<stop stop-color="#E84D70"/>
<stop offset="0.530886" stop-color="#A337F6"/>
<stop offset="1" stop-color="#28A7ED"/>
</radialGradient>
</defs>
</svg>
